:FULLY-SPECIFIED
:FORCE-ALL-JOINTS-BE-3DOF
:DEGREES
272
root 7.88295 16.0043 -25.0782 10.9928 53.8144 6.51257
lfemur -27.0581 18.8473 -18.5179
ltibia 44.997 0 0
lfoot -14.6285 -17.0009 0
ltoes 58.0783 0 0
rfemur -32.6976 -4.88592 12.0276
rtibia 68.1278 0 0
rfoot 16.6079 6.61 0
rtoes -7.76478 0 0
lowerback 5.39444 -2.79697 -4.26221
upperback 1.18757 -3.93189 0.0956422
thorax -1.47239 -1.94256 2.7272
lowerneck -8.04916 -9.2077 -2.47357
upperneck 1.05339 -12.0686 3.99554
head 2.17601 -5.97764 1.15324
lclavicle -1.17049e-014 -5.30872e-015 0
lhumerus -47.7887 -36.675 111.46
lradius 60.5029 0 0
lwrist 20.6388 0 0
lhand 10.3883 11.2906 0
lfingers 7.12502 0 0
lthumb 35.4915 37.7046 0
rclavicle -1.17049e-014 -5.30872e-015 0
rhumerus -40.6027 19.5083 -69.6227
rradius 49.1058 0 0
rwrist 26.5491 0 0
rhand -1.3823 -6.41073 0
rfingers 7.12502 0 0
rthumb 24.2583 -754.82 0
273
root 7.91588 15.9883 -25.0414 11.0302 53.9389 6.77855
lfemur -26.7517 18.8535 -18.5015
ltibia 45.2004 0 0
lfoot -14.7051 -17.2554 0
ltoes 58.093 0 0
rfemur -33.3356 -5.35004 12.7529
rtibia 67.8321 0 0
rfoot 16.625 6.91691 0
rtoes -7.55158 0 0
lowerback 5.51856 -2.80845 -4.3837
upperback 1.30008 -3.95673 -0.0245233
thorax -1.42246 -1.95649 2.67527
lowerneck -7.97794 -9.24065 -2.46775
upperneck 0.946953 -12.1153 4.18765
head 2.14502 -5.99945 1.21683
lclavicle -1.23246e-014 -5.56597e-015 0
lhumerus -47.6349 -36.8423 111.109
lradius 60.4634 0 0
lwrist 20.6603 0 0
lhand 10.479 11.2953 0
lfingers 7.12502 0 0
lthumb 35.5774 37.6878 0
rclavicle -1.23246e-014 -5.56597e-015 0
rhumerus -40.4122 20.9786 -69.6033
rradius 50.024 0 0
rwrist 25.9029 0 0
rhand -1.18648 -6.39091 0
rfingers 7.12502 0 0
rthumb 24.4458 -754.772 0
274
root 7.94881 15.9722 -25.0047 11.0676 54.0633 7.04452
lfemur -26.4453 18.8597 -18.4852
ltibia 45.4038 0 0
lfoot -14.7817 -17.51 0
ltoes 58.1076 0 0
rfemur -33.9736 -5.81416 13.4783
rtibia 67.5364 0 0
rfoot 16.6422 7.22383 0
rtoes -7.33838 0 0
lowerback 5.64269 -2.81992 -4.50518
upperback 1.41258 -3.98157 -0.144689
thorax -1.37253 -1.97041 2.62335
lowerneck -7.90672 -9.2736 -2.46194
upperneck 0.840519 -12.1621 4.37976
head 2.11403 -6.02127 1.28042
lclavicle -1.29444e-014 -5.82322e-015 0
lhumerus -47.4811 -37.0096 110.757
lradius 60.424 0 0
lwrist 20.6818 0 0
lhand 10.5698 11.3001 0
lfingers 7.12502 0 0
lthumb 35.6633 37.671 0
rclavicle -1.29444e-014 -5.82322e-015 0
rhumerus -40.2217 22.4488 -69.5839
rradius 50.9423 0 0
rwrist 25.2568 0 0
rhand -0.990654 -6.3711 0
rfingers 7.12502 0 0
rthumb 24.6333 -754.725 0
275
root 7.98174 15.9562 -24.9679 11.1051 54.1878 7.3105
lfemur -26.1389 18.8658 -18.4688
ltibia 45.6072 0 0
lfoot -14.8583 -17.7646 0
ltoes 58.1223 0 0
rfemur -34.6115 -6.27828 14.2037
rtibia 67.2407 0 0
rfoot 16.6593 7.53074 0
rtoes -7.12518 0 0
lowerback 5.76681 -2.8314 -4.62666
upperback 1.52509 -4.00641 -0.264854
thorax -1.3226 -1.98434 2.57143
lowerneck -7.83551 -9.30655 -2.45612
upperneck 0.734085 -12.2089 4.57187
head 2.08305 -6.04308 1.34401
lclavicle -1.35641e-014 -6.08047e-015 0
lhumerus -47.3273 -37.1769 110.406
lradius 60.3845 0 0
lwrist 20.7033 0 0
lhand 10.6605 11.3048 0
lfingers 7.12502 0 0
lthumb 35.7492 37.6543 0
rclavicle -1.35641e-014 -6.08047e-015 0
rhumerus -40.0312 23.919 -69.5646
rradius 51.8605 0 0
rwrist 24.6106 0 0
rhand -0.794832 -6.35129 0
rfingers 7.12502 0 0
rthumb 24.8207 -754.677 0
276
root 8.01468 15.9401 -24.9311 11.1425 54.3123 7.57647
lfemur -25.8325 18.872 -18.4525
ltibia 45.8106 0 0
lfoot -14.9349 -18.0191 0
ltoes 58.137 0 0
rfemur -35.2495 -6.7424 14.9291
rtibia 66.945 0 0
rfoot 16.6765 7.83766 0
rtoes -6.91198 0 0
lowerback 5.89093 -2.84287 -4.74815
upperback 1.63759 -4.03125 -0.38502
thorax -1.27266 -1.99827 2.51951
lowerneck -7.76429 -9.3395 -2.45031
upperneck 0.627652 -12.2556 4.76398
head 2.05206 -6.06489 1.4076
lclavicle -1.41839e-014 -6.33773e-015 0
lhumerus -47.1736 -37.3442 110.054
lradius 60.3451 0 0
lwrist 20.7248 0 0
lhand 10.7513 11.3095 0
lfingers 7.12502 0 0
lthumb 35.8352 37.6375 0
rclavicle -1.41839e-014 -6.33773e-015 0
rhumerus -39.8407 25.3893 -69.5452
rradius 52.7788 0 0
rwrist 23.9644 0 0
rhand -0.599009 -6.33148 0
rfingers 7.12502 0 0
rthumb 25.0082 -754.629 0
277
root 8.04761 15.9241 -24.8943 11.18 54.4367 7.84245
lfemur -25.5261 18.8781 -18.4361
ltibia 46.014 0 0
lfoot -15.0115 -18.2737 0
ltoes 58.1516 0 0
rfemur -35.8875 -7.20652 15.6545
rtibia 66.6493 0 0
rfoot 16.6936 8.14457 0
rtoes -6.69878 0 0
lowerback 6.01505 -2.85435 -4.86963
upperback 1.7501 -4.05609 -0.505185
thorax -1.22273 -2.01219 2.46759
lowerneck -7.69307 -9.37245 -2.44449
upperneck 0.521218 -12.3024 4.95609
head 2.02107 -6.0867 1.47118
lclavicle -1.48036e-014 -6.59498e-015 0
lhumerus -47.0198 -37.5115 109.702
lradius 60.3056 0 0
lwrist 20.7463 0 0
lhand 10.842 11.3142 0
lfingers 7.12502 0 0
lthumb 35.9211 37.6207 0
rclavicle -1.48036e-014 -6.59498e-015 0
rhumerus -39.6502 26.8595 -69.5258
rradius 53.697 0 0
rwrist 23.3182 0 0
rhand -0.403186 -6.31166 0
rfingers 7.12502 0 0
rthumb 25.1957 -754.582 0
278
root 8.08054 15.908 -24.8575 11.2174 54.5612 8.10842
lfemur -25.2197 18.8843 -18.4198
ltibia 46.2173 0 0
lfoot -15.0882 -18.5283 0
ltoes 58.1663 0 0
rfemur -36.5255 -7.67064 16.3799
rtibia 66.3536 0 0
rfoot 16.7108 8.45148 0
rtoes -6.48558 0 0
lowerback 6.13917 -2.86583 -4.99111
upperback 1.8626 -4.08093 -0.625351
thorax -1.1728 -2.02612 2.41566
lowerneck -7.62185 -9.4054 -2.43867
upperneck 0.414784 -12.3492 5.1482
head 1.99008 -6.10852 1.53477
lclavicle -1.54233e-014 -6.85223e-015 0
lhumerus -46.866 -37.6788 109.351
lradius 60.2661 0 0
lwrist 20.7678 0 0
lhand 10.9328 11.3189 0
lfingers 7.12502 0 0
lthumb 36.007 37.6039 0
rclavicle -1.54233e-014 -6.85223e-015 0
rhumerus -39.4597 28.3298 -69.5065
rradius 54.6153 0 0
rwrist 22.672 0 0
rhand -0.207364 -6.29185 0
rfingers 7.12502 0 0
rthumb 25.3831 -754.534 0
